<svg xmlns="http://www.w3.org/2000/svg" x="0px" y="0px"
width="48" height="48"
viewBox="0 0 48 48"
style="enable-background:new 0 0 48 48;; fill:#000000;"><g id="surface1">	<path style="fill:#FF4081;" d="M45,14c0,0,1.4,13.9-10,17c-10.8,2.9-11,4-11,4c0-5.1-0.6-10.6,8-14S43.1,17.1,45,14z M3.1,14   c0,0-1.4,13.9,10,17c10.8,2.9,11,4,11,4c0-5.1,0.6-10.6-8-14S5,17.1,3.1,14z"></path>	<path style="fill:#F50057;" d="M24,32c0-16.3,8.8-15.8,11-22c0,0,2,3.1,2,10S29.9,32,24,32z M24,32c0-16.3-8.8-15.8-11-22   c0,0-2,3.1-2,10S18.1,32,24,32z"></path>	<path style="fill:#D50000;" d="M24,6c0,0-6,7.4-6,15s6,10,6,10s6-2.4,6-10S24,6,24,6z"></path>	<path style="fill:#FFC400;" d="M24,23h-6c0,0,0,3,3,6c2.2,2.2,3,5,3,5s0.8-2.8,3-5c3-3,3-6,3-6H24z"></path>	<path style="fill:#FFEA00;" d="M30,23c0-1.1-2.7-2-6-2s-6,0.9-6,2s2.7,2,6,2S30,24.1,30,23z"></path>	<path style="fill:#FFC400;" d="M22,22c0,0.6-0.4,1-1,1s-1-0.4-1-1s0.4-1,1-1S22,21.4,22,22z"></path>	<path style="fill:#FFC400;" d="M25,21c0,0.6-0.4,1-1,1s-1-0.4-1-1s0.4-1,1-1S25,20.4,25,21z"></path>	<path style="fill:#FFC400;" d="M28,22c0,0.6-0.4,1-1,1s-1-0.4-1-1s0.4-1,1-1S28,21.4,28,22z"></path>	<path style="fill:#FFEA00;" d="M24,35c-0.6,0-1-0.5-1-1c0-1.4,1.5-2.5,3.4-3.8c2.5-1.8,5.6-4,5.6-7.2c0-0.6,0.4-1,1-1s1,0.4,1,1   c0,4.2-3.7,6.9-6.5,8.8c-1,0.7-2.5,1.8-2.5,2.2C25,34.6,24.6,35,24,35z"></path>	<path style="fill:#FFEA00;" d="M24,35c-0.5,0-1-0.4-1-1c-0.1-0.4-1.6-1.5-2.5-2.2C17.7,29.9,14,27.2,14,23c0-0.6,0.4-1,1-1   s1,0.4,1,1c0,3.2,3.1,5.4,5.6,7.2c1.9,1.3,3.4,2.4,3.4,3.8C25,34.6,24.6,35,24,35z"></path>	<path style="fill:#FF80AB;" d="M24,34c0,0,5.9-6.7,12-7s8.3-0.7,11-3c0,2.9-3.1,13-11,13S24,34,24,34z M24,34c0,0-5.9-6.7-12-7   s-8.3-0.7-11-3c0,2.9,3.1,13,11,13S24,34,24,34z"></path>	<path style="fill:#FCB4D2;" d="M24,34c0.2,0.2-0.5,8-7,8S5.6,36.3,5,34c3.9,1.4,9.1-1,12-1S22.8,32.8,24,34z M24,34   c-0.2,0.2,0.5,8,7,8s11.4-5.8,12-8c-3.9,1.4-9.1-1-12-1S25.2,32.8,24,34z"></path></g></svg>
