<svg xmlns:dc="http://purl.org/dc/elements/1.1/" xmlns:cc="http://creativecommons.org/ns#" xmlns:rdf="http://www.w3.org/1999/02/22-rdf-syntax-ns#" xmlns:svg="http://www.w3.org/2000/svg" xmlns="http://www.w3.org/2000/svg" xmlns:sodipodi="http://sodipodi.sourceforge.net/DTD/sodipodi-0.dtd" xmlns:inkscape="http://www.inkscape.org/namespaces/inkscape" version="1.1" x="0px" y="0px" viewBox="0 0 100 100"><g transform="translate(0,-952.36218)"><path style="text-indent:0;text-transform:none;direction:ltr;block-progression:tb;baseline-shift:baseline;color:#000000;enable-background:accumulate;" d="m 49.625002,960.37877 a 3.0003,3.0003 0 0 0 -1,0.3125 l -43,22 a 3.0003,3.0003 0 0 0 0,5.34375 l 11.4062,5.84375 -11.4062,5.81255 a 3.0003,3.0003 0 0 0 0,5.34368 l 11.4062,5.8437 -11.4062,5.8125 a 3.0003,3.0003 0 0 0 0,5.3438 l 43,22 a 3.0003,3.0003 0 0 0 2.75,0 l 42.999996,-22 a 3.0003,3.0003 0 0 0 0,-5.3438 l -11.4062,-5.8125 11.4062,-5.8437 a 3.0003,3.0003 0 0 0 0,-5.34368 l -11.4062,-5.81255 11.4062,-5.84375 a 3.0003,3.0003 0 0 0 0,-5.34375 l -42.999996,-22 a 3.0003,3.0003 0 0 0 -1.75,-0.3125 z m 0.375,6.375 36.406196,18.625 -36.406196,18.59373 -36.4062,-18.59373 36.4062,-18.625 z m -26.4062,30.46875 25.0312,12.81248 a 3.0003,3.0003 0 0 0 2.75,0 l 25.031196,-12.81248 10,5.12498 -36.406196,18.625 -36.4062,-18.625 10,-5.12498 z m 0,16.99998 25.0312,12.8125 a 3.0003,3.0003 0 0 0 2.75,0 l 25.031196,-12.8125 10,5.125 -36.406196,18.625 -36.4062,-18.625 10,-5.125 z" fill="#000000" fill-opacity="1" stroke="none" marker="none" visibility="visible" display="inline" overflow="visible"></path></g></svg>