<svg xmlns="http://www.w3.org/2000/svg" x="0px" y="0px"
width="48" height="48"
viewBox="0 0 192 192"
style=" fill:#000000;"><g fill="none" fill-rule="none" stroke="none" stroke-width="1" stroke-linecap="butt" stroke-linejoin="miter" stroke-miterlimit="10" stroke-dasharray="" stroke-dashoffset="0" font-family="none" font-weight="none" font-size="none" text-anchor="none" style="mix-blend-mode: normal"><path d="M0,192v-192h192v192z" fill="none" fill-rule="nonzero"></path><g fill="#ffffff" fill-rule="evenodd"><g id="surface1"><path d="M96,24c-39.77344,0 -72,32.22656 -72,72c0,31.80469 20.625,58.80469 49.24219,68.32031c3.60938,0.65625 4.92188,-1.54688 4.92188,-3.46875c0,-1.71094 -0.07031,-6.23438 -0.09375,-12.23438c-20.03906,4.33594 -24.25781,-9.65625 -24.25781,-9.65625c-3.28125,-8.32031 -7.99219,-10.54687 -7.99219,-10.54687c-6.53906,-4.45313 0.49219,-4.35938 0.49219,-4.35938c7.21875,0.51563 11.01563,7.40625 11.01563,7.40625c6.42187,11.01563 16.85156,7.82813 20.95312,6c0.65625,-4.66406 2.53125,-7.82812 4.57031,-9.63281c-15.98438,-1.80469 -32.78906,-7.99219 -32.78906,-35.57813c0,-7.875 2.8125,-14.29687 7.40625,-19.33594c-0.72656,-1.80469 -3.21094,-9.14063 0.70313,-19.05469c0,0 6.04687,-1.92188 19.80469,7.38281c5.74219,-1.59375 11.90625,-2.39062 18.02344,-2.41406c6.11719,0.02344 12.28125,0.82031 18.02344,2.41406c13.75781,-9.30469 19.78125,-7.38281 19.78125,-7.38281c3.9375,9.91406 1.47656,17.25 0.72656,19.05469c4.61719,5.03906 7.38281,11.46094 7.38281,19.33594c0,27.65625 -16.82813,33.72656 -32.85938,35.53125c2.57813,2.20313 4.875,6.60938 4.875,13.3125c0,9.63281 -0.07031,17.39063 -0.07031,19.75781c0,1.92187 1.28906,4.17187 4.94531,3.46875c28.59375,-9.53906 49.19531,-36.51563 49.19531,-68.32031c0,-39.77344 -32.22656,-72 -72,-72z"></path></g></g></g></svg>
