<?xml version="1.0" standalone="no"?>
<!DOCTYPE svg PUBLIC "-//W3C//DTD SVG 20010904//EN"
 "http://www.w3.org/TR/2001/REC-SVG-20010904/DTD/svg10.dtd">
<svg version="1.0" xmlns="http://www.w3.org/2000/svg"
 width="1983.000000pt" height="625.000000pt" viewBox="0 0 1983.000000 625.000000"
 preserveAspectRatio="xMidYMid meet">
<metadata>
Created by potrace 1.13, written by Peter Selinger 2001-2015
</metadata>
<g transform="translate(0.000000,625.000000) scale(0.100000,-0.100000)"
fill="#094AB2" stroke="none">
<path d="M3830 4715 c-97 -20 -205 -61 -294 -114 -101 -59 -246 -196 -311
-295 -33 -50 -55 -75 -65 -72 -8 3 -43 16 -78 31 -290 121 -650 30 -847 -214
-116 -144 -174 -297 -182 -479 -4 -71 -10 -115 -17 -117 -6 -1 -36 -8 -66 -15
-105 -23 -218 -86 -296 -164 -118 -118 -167 -248 -168 -441 -1 -182 50 -302
188 -441 60 -60 100 -90 156 -118 124 -61 157 -66 427 -66 l243 0 -39 78 c-54
107 -71 177 -78 318 -7 146 11 242 64 352 44 89 146 202 237 261 79 52 206
106 285 122 l59 13 22 83 c52 197 181 394 333 509 79 60 219 128 322 156 68
19 106 22 260 22 179 1 181 0 278 -33 154 -53 283 -139 369 -247 l50 -61 36
17 c50 23 112 37 205 45 l79 8 -7 46 c-3 25 -20 85 -35 133 -122 365 -403 611
-783 683 -95 18 -258 18 -347 0z"/>
<path d="M15230 4399 c-132 -39 -151 -226 -30 -290 122 -65 266 48 230 180
-11 42 -78 111 -108 111 -9 0 -26 2 -37 4 -11 3 -36 0 -55 -5z"/>
<path d="M7665 4344 c-263 -37 -441 -119 -596 -273 -134 -134 -218 -297 -270
-521 -26 -110 -37 -384 -20 -499 47 -321 193 -569 424 -721 285 -188 694 -210
1012 -55 315 154 497 450 537 875 27 294 -38 585 -179 797 -125 188 -335 329
-566 379 -70 15 -283 27 -342 18z m282 -240 c207 -42 355 -163 454 -369 51
-105 77 -211 88 -359 33 -440 -108 -765 -393 -904 -90 -44 -166 -62 -291 -69
-228 -12 -387 46 -536 196 -126 127 -194 269 -224 471 -56 362 49 705 273 893
72 60 197 123 282 141 89 20 254 19 347 0z"/>
<path d="M12180 3260 l0 -1050 339 0 c189 0 374 5 417 11 186 26 376 95 510
186 308 209 466 583 426 1011 -40 442 -235 706 -607 825 -185 59 -271 67 -711
67 l-374 0 0 -1050z m719 819 c237 -22 387 -83 511 -208 124 -125 179 -256
200 -479 12 -127 -1 -294 -30 -401 -74 -263 -262 -447 -535 -522 -70 -19 -113
-22 -342 -26 l-263 -5 0 826 0 826 173 0 c94 0 223 -5 286 -11z"/>
<path d="M3790 3980 c-191 -40 -316 -116 -430 -259 -83 -104 -152 -260 -183
-414 l-13 -62 -59 -7 c-156 -20 -307 -89 -405 -188 -113 -114 -156 -238 -146
-425 6 -130 24 -203 73 -304 68 -138 192 -236 360 -284 l78 -22 1290 -3 c908
-2 1309 0 1355 8 90 15 161 50 218 107 146 146 186 426 90 629 -52 111 -191
220 -324 254 l-49 13 -3 76 c-5 171 -64 306 -186 426 -135 134 -275 189 -476
189 -118 0 -229 -22 -303 -61 -31 -16 -31 -16 -56 18 -44 61 -176 183 -234
218 -75 44 -164 79 -245 96 -91 20 -249 18 -352 -5z"/>
<path d="M9663 3735 c-124 -27 -247 -113 -340 -240 l-22 -30 0 123 -1 122
-120 0 -120 0 0 -750 0 -750 119 0 119 0 4 483 c3 473 4 483 27 547 63 180
191 286 360 297 186 13 303 -74 351 -261 19 -74 20 -111 20 -573 l0 -493 126
0 125 0 -3 543 c-5 601 -4 596 -74 743 -94 199 -321 293 -571 239z"/>
<path d="M11141 3740 c-214 -45 -377 -171 -475 -366 -76 -151 -101 -280 -94
-476 15 -381 182 -622 488 -705 90 -24 305 -24 419 0 97 21 191 57 255 98 l46
29 0 110 c0 60 -2 110 -3 110 -2 0 -41 -22 -86 -49 -149 -90 -307 -124 -469
-103 -235 32 -367 182 -398 455 l-6 57 532 0 533 0 -6 153 c-3 108 -11 175
-26 232 -77 292 -270 451 -561 461 -58 2 -125 -1 -149 -6z m283 -234 c70 -34
139 -110 166 -184 21 -56 40 -145 40 -189 l0 -23 -400 0 c-458 0 -415 -11
-380 102 36 117 133 238 229 287 62 32 108 41 203 37 70 -3 99 -9 142 -30z"/>
<path d="M17640 3743 c-215 -36 -394 -173 -496 -378 -57 -116 -84 -222 -91
-362 -21 -407 151 -707 460 -801 73 -22 100 -25 237 -25 134 0 168 4 251 26
93 24 176 60 232 99 27 19 27 21 27 129 0 60 -3 109 -6 109 -3 0 -25 -14 -50
-31 -239 -164 -573 -170 -743 -14 -90 84 -139 193 -155 348 l-6 57 531 0 532
0 -6 158 c-8 258 -56 391 -187 523 -87 88 -162 129 -282 153 -71 15 -189 19
-248 9z m255 -232 c62 -27 129 -91 161 -153 28 -55 54 -156 54 -210 l0 -38
-400 0 c-324 0 -400 2 -400 13 0 27 33 124 61 180 54 105 143 184 248 219 76
25 207 20 276 -11z"/>
<path d="M14737 3730 c-121 -31 -230 -135 -289 -275 l-17 -40 0 148 -1 147
-125 0 -125 0 0 -750 0 -750 125 0 125 0 0 443 c0 495 4 529 66 656 68 137
146 193 279 199 75 3 106 -2 178 -33 16 -7 17 3 17 118 0 110 -2 126 -17 132
-30 12 -175 15 -216 5z"/>
<path d="M15150 2960 l0 -750 125 0 125 0 0 750 0 750 -125 0 -125 0 0 -750z"/>
<path d="M15608 3637 c15 -41 142 -378 282 -750 l255 -677 121 0 121 0 297
743 c163 409 296 747 296 750 0 4 -57 6 -126 5 l-127 -3 -207 -570 c-115 -314
-215 -602 -223 -640 -16 -75 -17 -74 -40 26 -12 50 -204 610 -399 1162 l-10
27 -134 0 -133 0 27 -73z"/>
</g>
</svg>
