<svg xmlns="http://www.w3.org/2000/svg" x="0px" y="0px"
width="48" height="48"
viewBox="0 0 48 48"
style="enable-background:new 0 0 48 48;; fill:#000000;"><g id="surface1">	<path style="fill:#BBDEFB;" d="M30,44v-4.6l2.6,0.5c2.9,0.6,5.6-1.5,5.8-4.4L39,29l2.9-1.2c1-0.4,1.4-1.6,0.8-2.6L39,19   c-0.6-7.6-4.9-15-16-15C11.6,4,6,12.4,6,21c0,3.6,1.3,6.9,3.3,9.6c1.8,2.5,2.7,5.5,2.7,8.5V44H30z"></path>	<polygon style="fill:#3F51B5;" points="29.5,26.9 28,25.6 31.4,21.5 28,17.4 29.5,16.1 34.1,21.5  "></polygon>	<polygon style="fill:#3F51B5;" points="16.5,26.9 11.9,21.5 16.5,16.1 18,17.4 14.6,21.5 18,25.6  "></polygon>			<rect x="14.9" y="20.4" transform="matrix(0.3233 -0.9463 0.9463 0.3233 -4.7431 36.1684)" style="fill:#3F51B5;" width="16.1" height="2"></rect></g></svg>
