<?xml version="1.0" encoding="iso-8859-1"?>
<!-- Generator: Adobe Illustrator 19.0.0, SVG Export Plug-In . SVG Version: 6.00 Build 0)  -->
<svg version="1.1" id="Capa_1" xmlns="http://www.w3.org/2000/svg" xmlns:xlink="http://www.w3.org/1999/xlink" x="0px" y="0px"
	 viewBox="0 0 512 512" style="enable-background:new 0 0 512 512;" xml:space="preserve">
<path style="fill:#FF421D;" d="M299.734,53.28C287.181,34.466,272.604,16.604,256,0c-16.604,16.604-31.182,34.466-43.734,53.28
	v121.502h87.467V53.28H299.734z"/>
<path style="fill:#DE0418;" d="M299.734,53.28C287.181,34.466,272.604,16.604,256,0c0,27.5,0,174.781,0,174.781h43.734V53.28z"/>
<rect x="241" y="227.15" style="fill:#33BC00;" width="30" height="269.85"/>
<rect x="256" y="227.15" style="fill:#00AC00;" width="15" height="269.85"/>
<path style="fill:#33BC00;" d="M249.638,512c0,0,2.595-110.488,100.748-208.641L323.245,512H249.638z"/>
<path style="fill:#79D60D;" d="M262.362,512c0,0-2.595-110.488-100.748-208.641L188.755,512H262.362z"/>
<path style="fill:#FF6536;" d="M256,248.42c59.771,0,108.225-48.454,108.225-108.225V31.97l0,0
	C304.454,31.97,256,80.424,256,140.195C256,80.424,207.546,31.97,147.775,31.97l0,0v108.225
	C147.775,199.966,196.229,248.42,256,248.42L256,248.42z"/>
<path style="fill:#FF421D;" d="M256,248.42c59.771,0,108.225-48.454,108.225-108.225V31.97l0,0
	C304.454,31.97,256,80.424,256,140.195C256,158,256,187.5,256,248.42L256,248.42z"/>
<g>
</g>
<g>
</g>
<g>
</g>
<g>
</g>
<g>
</g>
<g>
</g>
<g>
</g>
<g>
</g>
<g>
</g>
<g>
</g>
<g>
</g>
<g>
</g>
<g>
</g>
<g>
</g>
<g>
</g>
</svg>
